<svg width="54" height="15" viewBox="0 0 54 15" fill="none" xmlns="http://www.w3.org/2000/svg">
<path d="M17.6424 11.9755V3.57546H19.2864V11.9755H17.6424ZM20.593 11.9755V5.48346H22.045V6.04746C22.309 5.89546 22.561 5.77146 22.801 5.67546C23.041 5.57146 23.277 5.49546 23.509 5.44746C23.749 5.39146 24.001 5.36346 24.265 5.36346C24.681 5.36346 25.025 5.43946 25.297 5.59146C25.577 5.73546 25.785 5.94346 25.921 6.21546C26.057 6.48746 26.125 6.81546 26.125 7.19946V11.9755H24.529V7.70346C24.529 7.36746 24.449 7.11946 24.289 6.95946C24.137 6.79146 23.905 6.70746 23.593 6.70746C23.433 6.70746 23.277 6.72746 23.125 6.76746C22.973 6.79946 22.821 6.84346 22.669 6.89946C22.517 6.95546 22.357 7.02746 22.189 7.11546V11.9755H20.593ZM27.8822 11.9755V7.00746H26.9462V5.95146L27.8822 5.84346V5.69946C27.8822 5.10746 28.0022 4.61146 28.2422 4.21146C28.4822 3.80346 28.8302 3.49546 29.2862 3.28746C29.7502 3.07946 30.3102 2.97546 30.9662 2.97546C31.1982 2.97546 31.4462 2.99146 31.7102 3.02346C31.9822 3.04746 32.2542 3.08746 32.5262 3.14346C32.8062 3.19946 33.0742 3.27146 33.3302 3.35946L32.9582 4.51146C32.8142 4.46346 32.6622 4.42346 32.5022 4.39146C32.3422 4.35146 32.1782 4.31946 32.0102 4.29546C31.8502 4.27146 31.6902 4.25546 31.5302 4.24746C31.3782 4.23146 31.2342 4.22346 31.0982 4.22346C30.5462 4.22346 30.1342 4.35146 29.8622 4.60746C29.5902 4.85546 29.4542 5.24346 29.4542 5.77146V5.84346H33.1262V11.9755H31.5302V7.00746H29.4542V11.9755H27.8822ZM36.0054 3.09546V9.87546C36.0054 10.1075 36.0294 10.2875 36.0774 10.4155C36.1334 10.5355 36.2054 10.6155 36.2934 10.6555C36.3894 10.6955 36.4934 10.7155 36.6054 10.7155C36.6854 10.7155 36.7734 10.7075 36.8694 10.6915C36.9654 10.6755 37.0694 10.6515 37.1814 10.6195L37.3254 11.8435C37.1654 11.9155 36.9854 11.9755 36.7854 12.0235C36.5854 12.0715 36.3694 12.0955 36.1374 12.0955C35.7694 12.0955 35.4534 12.0315 35.1894 11.9035C34.9334 11.7755 34.7374 11.5595 34.6014 11.2555C34.4734 10.9515 34.4094 10.5395 34.4094 10.0195V3.09546H36.0054ZM39.9958 12.0955C39.5798 12.0955 39.2278 12.0155 38.9398 11.8555C38.6598 11.6955 38.4478 11.4515 38.3038 11.1235C38.1678 10.7955 38.0998 10.3755 38.0998 9.86346V6.64746H37.1038V5.59146L38.0998 5.48346L38.2918 4.04346H39.6958V5.48346H41.5318V6.65946H39.6958V9.73146C39.6958 10.0995 39.7638 10.3595 39.8998 10.5115C40.0358 10.6635 40.2478 10.7395 40.5358 10.7395C40.6958 10.7395 40.8598 10.7275 41.0278 10.7035C41.1958 10.6715 41.3718 10.6315 41.5558 10.5835L41.7718 11.7955C41.4518 11.9075 41.1398 11.9835 40.8358 12.0235C40.5398 12.0715 40.2598 12.0955 39.9958 12.0955ZM43.9356 5.48346V6.25146C44.1596 6.04346 44.3676 5.87546 44.5596 5.74746C44.7596 5.61146 44.9596 5.51546 45.1596 5.45946C45.3676 5.39546 45.5836 5.36346 45.8076 5.36346C45.9516 5.36346 46.0956 5.37546 46.2396 5.39946C46.3916 5.41546 46.5396 5.44746 46.6836 5.49546L46.4316 6.93546C46.2876 6.90346 46.1396 6.87946 45.9876 6.86346C45.8436 6.83946 45.7076 6.82746 45.5796 6.82746C45.3476 6.82746 45.1076 6.87146 44.8596 6.95946C44.6116 7.04746 44.3516 7.19946 44.0796 7.41546V11.9755H42.4836V5.48346H43.9356ZM46.7551 8.72346C46.7551 8.17146 46.8031 7.68746 46.8991 7.27146C47.0031 6.85546 47.1671 6.50746 47.3911 6.22746C47.6231 5.94746 47.9351 5.73546 48.3271 5.59146C48.7191 5.43946 49.2031 5.36346 49.7791 5.36346C50.3631 5.36346 50.8471 5.43946 51.2311 5.59146C51.6231 5.73546 51.9351 5.94746 52.1671 6.22746C52.3991 6.50746 52.5631 6.85546 52.6591 7.27146C52.7631 7.68746 52.8151 8.17146 52.8151 8.72346C52.8151 9.27546 52.7591 9.76346 52.6471 10.1875C52.5431 10.6115 52.3711 10.9635 52.1311 11.2435C51.8911 11.5235 51.5791 11.7355 51.1951 11.8795C50.8111 12.0235 50.3391 12.0955 49.7791 12.0955C49.2271 12.0955 48.7551 12.0235 48.3631 11.8795C47.9791 11.7355 47.6671 11.5235 47.4271 11.2435C47.1951 10.9635 47.0231 10.6115 46.9111 10.1875C46.8071 9.76346 46.7551 9.27546 46.7551 8.72346ZM48.3871 8.72346C48.3871 9.25946 48.4351 9.68746 48.5311 10.0075C48.6271 10.3195 48.7791 10.5435 48.9871 10.6795C49.1951 10.8155 49.4591 10.8835 49.7791 10.8835C50.1151 10.8835 50.3831 10.8155 50.5831 10.6795C50.7911 10.5435 50.9391 10.3195 51.0271 10.0075C51.1231 9.68746 51.1711 9.25946 51.1711 8.72346C51.1711 8.18746 51.1271 7.76346 51.0391 7.45146C50.9591 7.13946 50.8151 6.91546 50.6071 6.77946C50.4071 6.64346 50.1311 6.57546 49.7791 6.57546C49.4351 6.57546 49.1591 6.64346 48.9511 6.77946C48.7511 6.91546 48.6071 7.13946 48.5191 7.45146C48.4311 7.76346 48.3871 8.18746 48.3871 8.72346Z" fill="black"/>
<mask id="mask0_23_2" style="mask-type:alpha" maskUnits="userSpaceOnUse" x="0" y="0" width="15" height="15">
<rect x="0.9104" y="0.975464" width="14" height="14" fill="#D9D9D9"/>
</mask>
<g mask="url(#mask0_23_2)">
<path fill-rule="evenodd" clip-rule="evenodd" d="M6.65374 12.1937C6.82699 12.3663 7.0417 12.4525 7.29788 12.4525H8.5083C8.76108 12.4525 8.9774 12.3663 9.15726 12.1937C9.33712 12.021 9.42705 11.8071 9.42705 11.552C9.42705 11.2968 9.34038 11.0793 9.16703 10.8994C8.99378 10.7196 8.77907 10.6296 8.52288 10.6296H7.31247C7.05969 10.6296 6.84337 10.7196 6.66351 10.8994C6.48365 11.0793 6.39372 11.2968 6.39372 11.552C6.39372 11.8071 6.48039 12.021 6.65374 12.1937ZM2.42443 5.04786C2.59777 5.22043 2.81254 5.30671 3.06872 5.30671H12.7375C12.9902 5.30671 13.2066 5.22043 13.3864 5.04786C13.5663 4.87519 13.6562 4.6613 13.6562 4.40619C13.6562 4.15098 13.5695 3.93345 13.3962 3.75359C13.2229 3.57373 13.0082 3.4838 12.7521 3.4838H3.0833C2.83052 3.4838 2.6142 3.57373 2.43434 3.75359C2.25448 3.93345 2.16455 4.15098 2.16455 4.40619C2.16455 4.6613 2.25118 4.87519 2.42443 5.04786Z" fill="url(#paint0_linear_23_2)"/>
<path d="M4.87705 8.87963C4.62087 8.87963 4.40611 8.79334 4.23276 8.62077C4.05951 8.44811 3.97288 8.23422 3.97288 7.97911C3.97288 7.7239 4.05951 7.50636 4.23276 7.3265C4.40611 7.14664 4.62087 7.05671 4.87705 7.05671H10.9291C11.1853 7.05671 11.4 7.14664 11.5733 7.3265C11.7466 7.50636 11.8333 7.7239 11.8333 7.97911C11.8333 8.23422 11.7466 8.44811 11.5733 8.62077C11.4 8.79334 11.1853 8.87963 10.9291 8.87963H7.90309H4.87705Z" fill="url(#paint1_linear_23_2)"/>
</g>
<defs>
<linearGradient id="paint0_linear_23_2" x1="7.91038" y1="3.4838" x2="7.91038" y2="12.4525" gradientUnits="userSpaceOnUse">
<stop stop-color="#FFB007"/>
<stop offset="0.384615" stop-color="#FEAB11"/>
<stop offset="0.485577" stop-color="#E958A9"/>
<stop offset="1" stop-color="#A751FF"/>
</linearGradient>
<linearGradient id="paint1_linear_23_2" x1="7.91038" y1="3.4838" x2="7.91038" y2="12.4525" gradientUnits="userSpaceOnUse">
<stop stop-color="#FEA719"/>
<stop offset="0.336538" stop-color="#FDA223"/>
<stop offset="0.418269" stop-color="#E958A9"/>
<stop offset="0.628392" stop-color="#EA59AA"/>
<stop offset="0.75" stop-color="#B053F5"/>
<stop offset="1" stop-color="#A751FF"/>
</linearGradient>
</defs>
</svg>
